<?xml version="1.0" standalone="no"?>
<!DOCTYPE svg PUBLIC "-//W3C//DTD SVG 20010904//EN"
 "http://www.w3.org/TR/2001/REC-SVG-20010904/DTD/svg10.dtd">
<svg version="1.0" xmlns="http://www.w3.org/2000/svg"
 width="624.000000pt" height="624.000000pt" viewBox="0 0 624.000000 624.000000"
 preserveAspectRatio="xMidYMid meet">
<metadata>
Created by potrace 1.11, written by Peter Selinger 2001-2013
</metadata>
<g transform="translate(0.000000,624.000000) scale(0.100000,-0.100000)"
fill="#000000" stroke="none">
<path d="M3000 6224 c-52 -14 -95 -36 -290 -151 -215 -126 -834 -491 -910
-536 -47 -28 -119 -70 -160 -94 -96 -56 -33 -19 -595 -349 -539 -317 -582
-349 -644 -472 -65 -128 -61 -41 -61 -1547 0 -1270 2 -1374 18 -1425 35 -111
107 -215 189 -272 43 -29 322 -188 331 -188 2 0 16 -8 30 -18 15 -11 56 -35
92 -54 36 -19 297 -165 580 -325 283 -159 576 -324 650 -365 74 -42 257 -144
405 -228 327 -185 358 -197 493 -198 103 -1 150 7 212 35 29 13 658 364 905
505 39 22 95 54 125 70 30 17 84 47 120 68 36 20 85 48 110 62 25 14 114 64
198 111 233 133 442 251 492 279 25 14 108 60 185 103 77 43 164 96 193 118
70 53 138 150 169 240 29 82 28 54 38 907 3 267 8 683 10 925 3 242 7 574 9
737 l4 298 -27 79 c-15 44 -44 105 -66 136 -64 93 -97 118 -391 290 -28 17
-137 82 -243 145 -105 63 -199 120 -208 125 -20 11 -169 100 -193 115 -18 11
-4 2 -489 292 -210 126 -398 238 -417 248 -18 11 -50 30 -71 43 -56 36 -360
216 -418 248 -27 15 -73 34 -101 42 -64 19 -203 19 -274 1z m617 -557 c224
-134 423 -252 441 -263 17 -10 32 -21 32 -24 0 -3 -49 -32 -108 -66 -59 -33
-183 -105 -277 -158 -93 -54 -190 -110 -215 -124 -25 -14 -229 -131 -455 -260
-225 -129 -430 -246 -455 -260 -25 -14 -135 -77 -245 -140 -110 -63 -216 -123
-235 -134 -19 -11 -95 -54 -169 -97 l-134 -78 -31 17 c-17 10 -170 99 -341
198 -170 98 -330 190 -355 204 -113 63 -210 121 -210 127 0 3 80 52 178 109
97 57 184 107 192 112 8 5 60 36 115 68 130 77 752 442 925 544 74 44 167 98
205 121 39 22 86 50 105 62 31 20 65 40 195 115 17 10 88 52 158 94 71 42 143
80 160 84 67 17 106 -2 524 -251z m1309 -782 c272 -163 492 -300 489 -306 -4
-5 -22 -17 -40 -27 -43 -22 -110 -59 -475 -267 -162 -92 -323 -183 -357 -202
l-61 -34 -49 29 c-26 16 -256 148 -510 292 -255 145 -463 267 -463 271 0 6
672 395 850 492 30 16 64 36 75 43 11 8 26 12 33 9 7 -2 236 -138 508 -300z
m-1630 -526 c88 -50 175 -101 194 -112 19 -11 58 -32 85 -48 334 -185 554
-317 543 -326 -15 -12 -69 -44 -413 -248 -137 -81 -321 -190 -407 -242 -87
-51 -161 -93 -164 -93 -3 0 -51 27 -106 60 -54 33 -101 60 -104 60 -2 0 -21
11 -42 23 -30 19 -217 128 -407 237 -16 9 -49 28 -71 41 -23 13 -96 55 -163
94 -92 53 -118 72 -108 81 6 6 44 28 82 49 39 21 75 41 80 45 6 4 30 19 55 32
25 14 207 118 405 232 198 113 365 206 371 206 6 0 83 -41 170 -91z m-2356
-171 c129 -75 251 -145 270 -155 19 -11 118 -69 220 -128 102 -60 205 -119
229 -133 24 -13 168 -96 320 -185 152 -88 296 -171 321 -185 25 -14 61 -35 80
-47 19 -12 40 -24 45 -26 6 -2 132 -75 281 -162 l271 -158 0 -584 c0 -322 -3
-585 -6 -585 -4 0 -114 61 -246 136 -132 75 -269 152 -305 171 -36 20 -69 39
-75 43 -5 4 -116 67 -245 140 -129 73 -251 142 -270 153 -19 11 -84 48 -145
82 -60 34 -126 71 -145 82 -19 11 -123 70 -230 130 -542 307 -645 366 -649
369 -3 2 -4 1059 -2 1178 1 27 2 28 24 14 12 -8 128 -76 257 -150z m4634 -150
c-4 -277 -10 -784 -19 -1668 -8 -698 -6 -658 -38 -713 -28 -47 -27 -47 -317
-209 -84 -47 -435 -245 -499 -282 -35 -20 -65 -35 -67 -34 -2 3 -7 379 -20
1668 -3 300 -6 635 -7 745 l-3 200 43 27 c24 16 82 50 130 77 75 42 143 80
413 233 120 68 379 214 387 217 0 1 -1 -117 -3 -261z m-1280 -1040 l5 -567
-137 -79 c-75 -44 -222 -131 -327 -192 -104 -62 -208 -123 -230 -135 -22 -13
-98 -57 -168 -99 -71 -42 -131 -76 -135 -76 -6 0 -8 1135 -3 1161 0 4 31 22
69 41 75 39 60 31 377 211 432 245 540 305 542 304 1 -1 4 -257 7 -569z
m-3598 -237 c5 -5 25 -18 44 -28 93 -51 389 -218 430 -243 8 -5 116 -66 240
-136 124 -70 294 -167 378 -216 85 -48 155 -88 157 -88 2 0 57 -31 122 -69 65
-37 242 -138 393 -223 151 -86 295 -168 320 -182 25 -15 79 -44 121 -64 l76
-37 0 -548 c0 -462 -2 -547 -14 -543 -7 3 -105 57 -216 119 -111 63 -222 125
-247 139 -25 14 -135 76 -245 138 -110 62 -220 124 -245 138 -25 14 -169 95
-320 180 -151 85 -295 166 -320 180 -25 13 -58 32 -75 42 -16 10 -52 30 -80
45 -61 34 -174 97 -360 201 -122 69 -143 85 -168 126 l-29 46 0 509 c0 279 1
511 1 516 1 10 25 9 37 -2z m3605 -723 c2 -49 7 -420 10 -747 2 -290 0 -346
-12 -349 -8 -3 -16 -8 -19 -11 -3 -4 -16 -12 -30 -19 -14 -6 -32 -16 -40 -22
-24 -15 -192 -110 -197 -110 -2 0 -20 -10 -41 -23 -20 -13 -66 -40 -102 -59
-36 -20 -114 -64 -175 -98 -60 -34 -135 -76 -165 -93 -30 -17 -93 -52 -139
-79 -46 -26 -87 -48 -90 -48 -3 0 -6 248 -6 552 0 417 3 552 12 555 28 10 132
68 343 192 124 73 268 158 320 189 109 64 148 87 245 147 39 24 73 44 78 44 4
1 7 -9 8 -21z"/>
</g>
</svg>
